<mxfile host="app.diagrams.net" modified="2020-04-26T05:58:55.487Z" agent="5.0 (Windows NT 10.0; Win64; x64) AppleWebKit/537.36 (KHTML, like Gecko) Chrome/81.0.4044.122 Safari/537.36" etag="3k3S57oKTSzxZ6CrRwbz" version="13.0.1" type="github">
  <diagram id="y-iVMmQmq4lpehuTKv4d" name="Page-1">
    <mxGraphModel dx="1422" dy="849" grid="1" gridSize="10" guides="1" tooltips="1" connect="1" arrows="1" fold="1" page="1" pageScale="1" pageWidth="827" pageHeight="1169" math="0" shadow="0">
      <root>
        <mxCell id="0" />
        <mxCell id="1" parent="0" />
        <mxCell id="Unk3jP9CN9uS7z3M_2QQ-3" value="" style="edgeStyle=orthogonalEdgeStyle;rounded=0;orthogonalLoop=1;jettySize=auto;html=1;strokeWidth=1;fontSize=14;fillColor=#fff2cc;strokeColor=#666666;" edge="1" parent="1" source="Unk3jP9CN9uS7z3M_2QQ-1">
          <mxGeometry relative="1" as="geometry">
            <mxPoint x="260" y="100" as="targetPoint" />
          </mxGeometry>
        </mxCell>
        <mxCell id="Unk3jP9CN9uS7z3M_2QQ-1" value="点击提交任务" style="rounded=1;whiteSpace=wrap;html=1;strokeWidth=1;fontSize=14;fillColor=#dae8fc;strokeColor=#6c8ebf;" vertex="1" parent="1">
          <mxGeometry x="80" y="70" width="120" height="60" as="geometry" />
        </mxCell>
        <mxCell id="Unk3jP9CN9uS7z3M_2QQ-6" value="" style="edgeStyle=orthogonalEdgeStyle;rounded=0;orthogonalLoop=1;jettySize=auto;html=1;strokeWidth=1;fontSize=14;fillColor=#fff2cc;strokeColor=#666666;" edge="1" parent="1" source="Unk3jP9CN9uS7z3M_2QQ-4" target="Unk3jP9CN9uS7z3M_2QQ-5">
          <mxGeometry relative="1" as="geometry" />
        </mxCell>
        <mxCell id="Unk3jP9CN9uS7z3M_2QQ-8" value="" style="edgeStyle=orthogonalEdgeStyle;rounded=0;orthogonalLoop=1;jettySize=auto;html=1;strokeWidth=1;fontSize=14;fillColor=#fff2cc;strokeColor=#666666;" edge="1" parent="1" source="Unk3jP9CN9uS7z3M_2QQ-4">
          <mxGeometry relative="1" as="geometry">
            <mxPoint x="330" y="220" as="targetPoint" />
          </mxGeometry>
        </mxCell>
        <mxCell id="Unk3jP9CN9uS7z3M_2QQ-4" value="其项目是否&lt;br style=&quot;font-size: 14px;&quot;&gt;有归一化配置" style="rhombus;whiteSpace=wrap;html=1;strokeWidth=1;fontSize=14;fillColor=#647687;strokeColor=#314354;fontColor=#ffffff;" vertex="1" parent="1">
          <mxGeometry x="260" y="60" width="140" height="80" as="geometry" />
        </mxCell>
        <mxCell id="Unk3jP9CN9uS7z3M_2QQ-20" value="" style="edgeStyle=orthogonalEdgeStyle;rounded=0;orthogonalLoop=1;jettySize=auto;html=1;entryX=1;entryY=0.5;entryDx=0;entryDy=0;strokeWidth=1;fontSize=14;fillColor=#fff2cc;strokeColor=#666666;" edge="1" parent="1" source="Unk3jP9CN9uS7z3M_2QQ-5" target="Unk3jP9CN9uS7z3M_2QQ-10">
          <mxGeometry relative="1" as="geometry">
            <mxPoint x="530" y="220" as="targetPoint" />
            <Array as="points">
              <mxPoint x="530" y="240" />
            </Array>
          </mxGeometry>
        </mxCell>
        <mxCell id="Unk3jP9CN9uS7z3M_2QQ-22" value="" style="edgeStyle=orthogonalEdgeStyle;rounded=0;orthogonalLoop=1;jettySize=auto;html=1;entryX=1;entryY=0.5;entryDx=0;entryDy=0;strokeWidth=1;fontSize=14;fillColor=#fff2cc;strokeColor=#666666;" edge="1" parent="1" source="Unk3jP9CN9uS7z3M_2QQ-5" target="Unk3jP9CN9uS7z3M_2QQ-14">
          <mxGeometry relative="1" as="geometry">
            <mxPoint x="680" y="100" as="targetPoint" />
            <Array as="points">
              <mxPoint x="620" y="100" />
              <mxPoint x="620" y="380" />
            </Array>
          </mxGeometry>
        </mxCell>
        <mxCell id="Unk3jP9CN9uS7z3M_2QQ-5" value="是否成功&lt;br style=&quot;font-size: 14px;&quot;&gt;归一化检查" style="rhombus;whiteSpace=wrap;html=1;strokeWidth=1;fontSize=14;fillColor=#647687;strokeColor=#314354;fontColor=#ffffff;" vertex="1" parent="1">
          <mxGeometry x="460" y="60" width="140" height="80" as="geometry" />
        </mxCell>
        <mxCell id="Unk3jP9CN9uS7z3M_2QQ-16" value="" style="edgeStyle=orthogonalEdgeStyle;rounded=0;orthogonalLoop=1;jettySize=auto;html=1;strokeWidth=1;fontSize=14;fillColor=#fff2cc;strokeColor=#666666;" edge="1" parent="1" source="Unk3jP9CN9uS7z3M_2QQ-10">
          <mxGeometry relative="1" as="geometry">
            <mxPoint x="190" y="240" as="targetPoint" />
          </mxGeometry>
        </mxCell>
        <mxCell id="Unk3jP9CN9uS7z3M_2QQ-27" value="" style="edgeStyle=orthogonalEdgeStyle;rounded=0;orthogonalLoop=1;jettySize=auto;html=1;strokeWidth=1;fontSize=14;fillColor=#fff2cc;strokeColor=#666666;" edge="1" parent="1" source="Unk3jP9CN9uS7z3M_2QQ-10" target="Unk3jP9CN9uS7z3M_2QQ-14">
          <mxGeometry relative="1" as="geometry" />
        </mxCell>
        <mxCell id="Unk3jP9CN9uS7z3M_2QQ-10" value="其它检查" style="rhombus;whiteSpace=wrap;html=1;strokeWidth=1;fontSize=14;fillColor=#647687;strokeColor=#314354;fontColor=#ffffff;" vertex="1" parent="1">
          <mxGeometry x="270" y="200" width="120" height="80" as="geometry" />
        </mxCell>
        <mxCell id="Unk3jP9CN9uS7z3M_2QQ-14" value="抛出报错提示" style="shape=parallelogram;perimeter=parallelogramPerimeter;whiteSpace=wrap;html=1;strokeWidth=1;fontSize=14;fillColor=#76608a;strokeColor=#432D57;fontColor=#ffffff;" vertex="1" parent="1">
          <mxGeometry x="270" y="350" width="120" height="60" as="geometry" />
        </mxCell>
        <mxCell id="Unk3jP9CN9uS7z3M_2QQ-18" value="执行提交任务" style="shape=parallelogram;perimeter=parallelogramPerimeter;whiteSpace=wrap;html=1;strokeWidth=1;fontSize=14;fillColor=#76608a;strokeColor=#432D57;fontColor=#ffffff;" vertex="1" parent="1">
          <mxGeometry x="80" y="210" width="120" height="60" as="geometry" />
        </mxCell>
        <mxCell id="Unk3jP9CN9uS7z3M_2QQ-28" value="" style="endArrow=none;dashed=1;html=1;strokeWidth=1;fontSize=14;fillColor=#fff2cc;strokeColor=#FF6666;" edge="1" parent="1">
          <mxGeometry width="50" height="50" relative="1" as="geometry">
            <mxPoint x="60" y="440" as="sourcePoint" />
            <mxPoint x="670" y="440" as="targetPoint" />
          </mxGeometry>
        </mxCell>
        <mxCell id="Unk3jP9CN9uS7z3M_2QQ-31" value="" style="edgeStyle=orthogonalEdgeStyle;rounded=0;orthogonalLoop=1;jettySize=auto;html=1;strokeWidth=1;fontSize=14;fillColor=#fff2cc;strokeColor=#666666;" edge="1" parent="1" source="Unk3jP9CN9uS7z3M_2QQ-29" target="Unk3jP9CN9uS7z3M_2QQ-30">
          <mxGeometry relative="1" as="geometry" />
        </mxCell>
        <mxCell id="Unk3jP9CN9uS7z3M_2QQ-29" value="前台归一化&lt;br style=&quot;font-size: 14px;&quot;&gt;检查常驻脚本" style="rounded=1;whiteSpace=wrap;html=1;strokeWidth=1;fontSize=14;fillColor=#b1ddf0;strokeColor=#10739e;" vertex="1" parent="1">
          <mxGeometry x="60" y="494" width="120" height="60" as="geometry" />
        </mxCell>
        <mxCell id="Unk3jP9CN9uS7z3M_2QQ-33" value="" style="edgeStyle=orthogonalEdgeStyle;rounded=0;orthogonalLoop=1;jettySize=auto;html=1;strokeWidth=1;fontSize=14;fillColor=#fff2cc;strokeColor=#666666;" edge="1" parent="1" source="Unk3jP9CN9uS7z3M_2QQ-30" target="Unk3jP9CN9uS7z3M_2QQ-32">
          <mxGeometry relative="1" as="geometry" />
        </mxCell>
        <mxCell id="Unk3jP9CN9uS7z3M_2QQ-30" value="获取待归一化&lt;br style=&quot;font-size: 14px;&quot;&gt;检查的批次" style="rounded=1;whiteSpace=wrap;html=1;strokeWidth=1;fontSize=14;fillColor=#d0cee2;strokeColor=#56517e;" vertex="1" parent="1">
          <mxGeometry x="260" y="494" width="120" height="60" as="geometry" />
        </mxCell>
        <mxCell id="Unk3jP9CN9uS7z3M_2QQ-35" value="" style="edgeStyle=orthogonalEdgeStyle;rounded=0;orthogonalLoop=1;jettySize=auto;html=1;strokeWidth=1;fontSize=14;fillColor=#fff2cc;strokeColor=#666666;" edge="1" parent="1" source="Unk3jP9CN9uS7z3M_2QQ-32">
          <mxGeometry relative="1" as="geometry">
            <mxPoint x="210" y="664" as="targetPoint" />
          </mxGeometry>
        </mxCell>
        <mxCell id="Unk3jP9CN9uS7z3M_2QQ-32" value="进行归一化检查" style="rounded=1;whiteSpace=wrap;html=1;strokeWidth=1;fontSize=14;fillColor=#a0522d;strokeColor=#6D1F00;fontColor=#ffffff;" vertex="1" parent="1">
          <mxGeometry x="260" y="634" width="120" height="60" as="geometry" />
        </mxCell>
        <mxCell id="Unk3jP9CN9uS7z3M_2QQ-36" value="" style="endArrow=none;dashed=1;html=1;strokeWidth=1;fontSize=14;fillColor=#fff2cc;strokeColor=#B5739D;" edge="1" parent="1">
          <mxGeometry width="50" height="50" relative="1" as="geometry">
            <mxPoint x="440" y="730" as="sourcePoint" />
            <mxPoint x="440" y="460" as="targetPoint" />
          </mxGeometry>
        </mxCell>
        <mxCell id="Unk3jP9CN9uS7z3M_2QQ-39" value="" style="edgeStyle=orthogonalEdgeStyle;rounded=0;orthogonalLoop=1;jettySize=auto;html=1;strokeWidth=1;fontSize=14;fillColor=#fff2cc;strokeColor=#666666;" edge="1" parent="1" source="Unk3jP9CN9uS7z3M_2QQ-37">
          <mxGeometry relative="1" as="geometry">
            <mxPoint x="590" y="620" as="targetPoint" />
          </mxGeometry>
        </mxCell>
        <mxCell id="Unk3jP9CN9uS7z3M_2QQ-37" value="答案再次保存&lt;br style=&quot;font-size: 14px;&quot;&gt;或提交时" style="rounded=1;whiteSpace=wrap;html=1;strokeWidth=1;fontSize=14;fillColor=#b1ddf0;strokeColor=#10739e;" vertex="1" parent="1">
          <mxGeometry x="530" y="480" width="120" height="60" as="geometry" />
        </mxCell>
        <mxCell id="Unk3jP9CN9uS7z3M_2QQ-40" value="重置归一化检查&lt;br style=&quot;font-size: 14px;&quot;&gt;状态到todo" style="shape=parallelogram;perimeter=parallelogramPerimeter;whiteSpace=wrap;html=1;strokeWidth=1;fontSize=14;fillColor=#76608a;strokeColor=#432D57;fontColor=#ffffff;" vertex="1" parent="1">
          <mxGeometry x="515" y="620" width="150" height="60" as="geometry" />
        </mxCell>
        <mxCell id="Unk3jP9CN9uS7z3M_2QQ-41" value="&lt;span&gt;修改归一化&lt;/span&gt;&lt;br&gt;&lt;span&gt;检查状态：success | fail&lt;/span&gt;&lt;br&gt;&lt;span&gt;并把结果写入result字段&lt;/span&gt;" style="shape=parallelogram;perimeter=parallelogramPerimeter;whiteSpace=wrap;html=1;strokeWidth=1;fontSize=14;spacing=0;fillColor=#76608a;strokeColor=#432D57;fontColor=#ffffff;" vertex="1" parent="1">
          <mxGeometry x="10" y="634" width="220" height="60" as="geometry" />
        </mxCell>
        <mxCell id="Unk3jP9CN9uS7z3M_2QQ-42" value="" style="endArrow=none;dashed=1;html=1;strokeColor=#B3B3B3;strokeWidth=1;fontSize=14;exitX=1;exitY=0.5;exitDx=0;exitDy=0;entryX=0;entryY=0.5;entryDx=0;entryDy=0;" edge="1" parent="1" source="Unk3jP9CN9uS7z3M_2QQ-30" target="Unk3jP9CN9uS7z3M_2QQ-40">
          <mxGeometry width="50" height="50" relative="1" as="geometry">
            <mxPoint x="620" y="480" as="sourcePoint" />
            <mxPoint x="670" y="430" as="targetPoint" />
          </mxGeometry>
        </mxCell>
        <mxCell id="Unk3jP9CN9uS7z3M_2QQ-43" value="&lt;font color=&quot;#4d9900&quot;&gt;是&lt;/font&gt;" style="text;html=1;align=center;verticalAlign=middle;resizable=0;points=[];autosize=1;fontSize=14;" vertex="1" parent="1">
          <mxGeometry x="413.5" y="70" width="30" height="20" as="geometry" />
        </mxCell>
        <mxCell id="Unk3jP9CN9uS7z3M_2QQ-44" value="&lt;font color=&quot;#4d9900&quot;&gt;否&lt;/font&gt;" style="text;html=1;align=center;verticalAlign=middle;resizable=0;points=[];autosize=1;fontSize=14;" vertex="1" parent="1">
          <mxGeometry x="300" y="160" width="30" height="20" as="geometry" />
        </mxCell>
        <mxCell id="Unk3jP9CN9uS7z3M_2QQ-45" value="&lt;font color=&quot;#4d9900&quot;&gt;是&lt;/font&gt;" style="text;html=1;align=center;verticalAlign=middle;resizable=0;points=[];autosize=1;fontSize=14;" vertex="1" parent="1">
          <mxGeometry x="500" y="160" width="30" height="20" as="geometry" />
        </mxCell>
        <mxCell id="Unk3jP9CN9uS7z3M_2QQ-46" value="&lt;font color=&quot;#4d9900&quot;&gt;否&lt;/font&gt;" style="text;html=1;align=center;verticalAlign=middle;resizable=0;points=[];autosize=1;fontSize=14;" vertex="1" parent="1">
          <mxGeometry x="590" y="270" width="30" height="20" as="geometry" />
        </mxCell>
        <mxCell id="Unk3jP9CN9uS7z3M_2QQ-47" value="&lt;font color=&quot;#4d9900&quot;&gt;是&lt;/font&gt;" style="text;html=1;align=center;verticalAlign=middle;resizable=0;points=[];autosize=1;fontSize=14;" vertex="1" parent="1">
          <mxGeometry x="220" y="220" width="30" height="20" as="geometry" />
        </mxCell>
        <mxCell id="Unk3jP9CN9uS7z3M_2QQ-48" value="&lt;font color=&quot;#4d9900&quot;&gt;否&lt;/font&gt;" style="text;html=1;align=center;verticalAlign=middle;resizable=0;points=[];autosize=1;fontSize=14;" vertex="1" parent="1">
          <mxGeometry x="300" y="300" width="30" height="20" as="geometry" />
        </mxCell>
      </root>
    </mxGraphModel>
  </diagram>
</mxfile>
